<?xml version="1.0" standalone="no"?>
<!DOCTYPE svg PUBLIC "-//W3C//DTD SVG 20010904//EN"
 "http://www.w3.org/TR/2001/REC-SVG-20010904/DTD/svg10.dtd">
<svg version="1.0" xmlns="http://www.w3.org/2000/svg"
 width="2000.000000pt" height="2000.000000pt" viewBox="0 0 2000.000000 2000.000000"
 preserveAspectRatio="xMidYMid meet">

<g transform="translate(0.000000,2000.000000) scale(0.100000,-0.100000)"
 fill="white" stroke="none">
<!-- L -->
<path d="M4250 13325 l0 -1135 803 2 802 3 3 193 2 192 -575 0 -575 0 0 940 0
940 -230 0 -230 0 0 -1135z"/>
<!-- A -->
<path d="M6406 13355 c-241 -619 -440 -1134 -443 -1145 -5 -20 -2 -20 238 -18
l244 3 94 258 94 257 460 -2 460 -3 98 -255 98 -255 252 -3 c237 -2 251 -1
245 15 -4 10 -210 525 -458 1146 l-451 1127 -246 0 -246 0 -439 -1125z m838
169 c79 -214 147 -397 151 -406 7 -17 -12 -18 -304 -18 -171 0 -311 2 -311 5
0 2 63 179 141 392 78 214 146 401 152 417 7 22 12 25 18 14 4 -8 73 -190 153
-404z"/>
<!-- W -->
<path d="M8107 14453 c3 -16 126 -530 273 -1143 l266 -1115 251 -3 251 -2 7
27 c10 42 435 1645 442 1668 3 12 94 -312 223 -795 120 -448 223 -834 229
-857 l12 -43 244 0 c135 0 245 2 245 4 0 3 124 514 275 1137 151 622 275 1135
275 1140 0 5 -101 9 -230 9 l-229 0 -10 -37 c-5 -21 -82 -373 -172 -783 -89
-410 -165 -748 -168 -752 -4 -4 -96 348 -205 782 l-199 790 -276 0 -276 0
-204 -770 c-112 -423 -207 -774 -210 -779 -3 -5 -83 340 -176 767 l-170 777
-238 3 -237 2 7 -27z"/>
<!-- Y -->
<path d="M11131 14443 c13 -21 199 -315 414 -653 l390 -615 5 -490 5 -490 228
-3 227 -2 0 479 0 480 420 663 420 663 -262 3 c-144 1 -265 -1 -269 -5 -4 -5
-123 -206 -263 -448 -141 -242 -259 -439 -262 -438 -3 1 -124 201 -269 445
l-263 443 -272 3 -272 2 23 -37z"/>
<!-- E -->
<path d="M13480 13335 l0 -1145 870 0 870 0 0 195 0 195 -640 0 -640 0 0 310
0 310 575 0 575 0 0 195 0 195 -575 0 -575 0 0 255 0 255 615 0 615 0 0 190 0
190 -845 0 -845 0 0 -1145z"/>
<!-- R -->
<path d="M15612 13338 l3 -1143 228 -3 227 -2 0 480 0 480 98 0 c124 0 212
-15 271 -45 91 -45 166 -143 509 -657 l172 -258 275 0 c267 0 275 1 266 19
-21 39 -369 588 -407 642 -105 150 -184 228 -318 319 l-50 34 80 17 c158 34
268 93 362 194 107 114 152 241 152 427 0 197 -51 329 -176 455 -85 86 -157
124 -296 155 -88 20 -126 22 -746 25 l-652 4 2 -1143z m1216 738 c78 -25 145
-93 167 -170 31 -106 7 -226 -58 -294 -77 -81 -140 -92 -557 -95 l-305 -2 -3
280 c-1 154 0 286 3 294 8 22 679 10 753 -13z"/>
<!-- U -->
<path d="M2078 17691 l-526 -826 219 -3 219 -2 3 -5763 c3 -4193 7 -5801 15
-5907 59 -754 161 -1262 336 -1684 415 -999 1299 -1582 2621 -1730 474 -53
1101 -45 1538 19 561 83 1033 253 1427 517 187 125 285 204 444 358 505 490
759 1087 875 2050 59 488 61 582 61 3663 l0 2817 -615 0 -614 0 -4 -2927 c-3
-2098 -7 -2963 -15 -3053 -72 -785 -193 -1231 -429 -1589 -74 -113 -260 -298
-381 -380 -301 -204 -710 -333 -1212 -383 -210 -20 -741 -18 -910 5 -609 82
-1088 318 -1393 685 -266 319 -399 693 -467 1303 -45 415 -44 197 -47 6242
l-3 5757 220 0 c121 0 220 2 220 5 0 5 -1039 1637 -1049 1646 -3 4 -243 -365
-533 -820z"/>
<!-- P -->
<path d="M11360 6550 l0 -4650 615 0 615 0 0 1889 0 1890 1428 4 c1503 4 1513
5 1887 52 826 105 1420 358 1804 770 312 335 542 756 654 1200 76 298 102 548
94 890 -11 456 -93 803 -282 1190 -124 255 -255 444 -434 629 -184 188 -366
320 -606 436 -383 187 -779 277 -1455 332 -102 8 -760 12 -2232 15 l-2088 4 0
-4651z m4225 3540 c333 -20 507 -50 677 -115 185 -72 335 -171 478 -315 273
-275 428 -641 449 -1054 13 -277 -16 -540 -84 -751 -42 -130 -137 -314 -219
-423 -272 -361 -649 -539 -1336 -629 -110 -14 -298 -17 -1542 -20 l-1418 -4 0
1661 0 1660 1413 0 c831 0 1482 -4 1582 -10z"/>
</g>
</svg>
