<svg version="1.0" xmlns="http://www.w3.org/2000/svg"
 width="2000" height="2000" viewBox="0 0 2000 2000"
 preserveAspectRatio="xMidYMid meet">

<g transform="translate(0,2000) scale(0.1,-0.1)"
fill="white" stroke="none">
<!-- L -->
<path d="M4630 13740 l0 -1420 1005 0 1005 0 0 240 0 240 -717 2 -718 3 -3
1178 -2 1177 -285 0 -285 0 0 -1420z"/>
<!-- E -->
<path d="M7050 13750 l0 -1430 1090 0 1090 0 0 240 0 240 -797 2 -798 3 -3
388 -2 387 720 0 720 0 0 245 0 245 -720 0 -720 0 0 315 0 315 775 0 775 0 0
240 0 240 -1065 0 -1065 0 0 -1430z"/>
<!-- V -->
<path d="M9449 15128 c10 -29 233 -654 496 -1388 263 -734 484 -1354 492
-1377 l15 -43 308 0 308 0 15 43 c8 23 238 664 511 1425 273 761 496 1386 496
1388 0 2 -138 3 -306 2 l-305 -3 -347 -1047 c-191 -577 -349 -1048 -352 -1048
-5 0 -68 184 -542 1573 l-181 527 -313 0 -313 0 18 -52z"/>
<!-- E -->
<path d="M12390 13750 l0 -1430 1090 0 1090 0 0 240 0 240 -800 0 -800 0 0
390 0 390 715 0 715 0 0 245 0 245 -715 0 -715 0 0 315 0 315 770 0 770 0 0
240 0 240 -1060 0 -1060 0 0 -1430z"/>
<!-- L -->
<path d="M15070 13740 l0 -1420 1010 0 1010 0 0 240 0 240 -720 0 -720 0 0
1180 0 1180 -290 0 -290 0 0 -1420z"/>
<!-- U -->
<path d="M2078 17691 l-526 -826 219 -3 219 -2 3 -5763 c3 -4193 7 -5801 15
-5907 59 -754 161 -1262 336 -1684 415 -999 1299 -1582 2621 -1730 474 -53
1101 -45 1538 19 561 83 1033 253 1427 517 187 125 285 204 444 358 505 490
759 1087 875 2050 59 488 61 582 61 3663 l0 2817 -615 0 -614 0 -4 -2927 c-3
-2098 -7 -2963 -15 -3053 -72 -785 -193 -1231 -429 -1589 -74 -113 -260 -298
-381 -380 -301 -204 -710 -333 -1212 -383 -210 -20 -741 -18 -910 5 -609 82
-1088 318 -1393 685 -266 319 -399 693 -467 1303 -45 415 -44 197 -47 6242
l-3 5757 220 0 c121 0 220 2 220 5 0 5 -1039 1637 -1049 1646 -3 4 -243 -365
-533 -820z"/>
<!-- P -->
<path d="M11360 6550 l0 -4650 615 0 615 0 0 1889 0 1890 1428 4 c1503 4 1513
5 1887 52 826 105 1420 358 1804 770 312 335 542 756 654 1200 76 298 102 548
94 890 -11 456 -93 803 -282 1190 -124 255 -255 444 -434 629 -184 188 -366
320 -606 436 -383 187 -779 277 -1455 332 -102 8 -760 12 -2232 15 l-2088 4 0
-4651z m4225 3540 c333 -20 507 -50 677 -115 185 -72 335 -171 478 -315 273
-275 428 -641 449 -1054 13 -277 -16 -540 -84 -751 -42 -130 -137 -314 -219
-423 -272 -361 -649 -539 -1336 -629 -110 -14 -298 -17 -1542 -20 l-1418 -4 0
1661 0 1660 1413 0 c831 0 1482 -4 1582 -10z"/>
</g>
</svg>
