<svg version="1.0" xmlns="http://www.w3.org/2000/svg"
 width="2000" height="2000" viewBox="0 0 2000.000000 2000.000000"
 preserveAspectRatio="xMidYMid meet">
<g transform="translate(0.000000,2000.000000) scale(0.100000,-0.100000)"
fill="white" stroke="none">
<!-- S -->
<path d="M4766 14560 c-290 -46 -481 -186 -558 -408 -34 -98 -32 -249 4 -349
49 -138 149 -250 288 -322 106 -55 194 -84 451 -151 314 -82 377 -113 420
-205 55 -119 -28 -277 -176 -336 -54 -21 -75 -24 -210 -24 -133 0 -156 3 -207
23 -117 47 -217 175 -249 317 l-12 56 -41 -6 c-42 -5 -342 -35 -357 -35 -30 0
18 -193 77 -318 34 -70 62 -111 116 -168 148 -156 320 -221 608 -231 235 -9
391 18 549 94 121 58 207 141 269 259 59 115 75 192 69 334 -7 171 -55 288
-161 394 -108 108 -239 166 -564 250 -422 110 -492 150 -492 284 0 69 30 109
110 150 74 37 144 52 240 52 208 0 321 -71 371 -233 l22 -69 201 7 c110 4 204
9 209 12 23 13 -14 187 -58 276 -87 173 -243 284 -468 333 -85 19 -365 27
-451 14z"/>
<!-- C -->
<path d="M6908 14559 c-210 -31 -403 -130 -540 -277 -185 -201 -268 -451 -268
-813 0 -359 88 -606 286 -803 162 -163 360 -249 605 -263 364 -21 646 113 810
383 41 67 101 207 113 262 l7 30 -118 38 c-65 20 -157 49 -204 64 l-86 27 -17
-61 c-75 -269 -278 -415 -524 -378 -155 24 -293 123 -356 255 -110 234 -113
688 -5 915 124 260 470 352 712 190 61 -42 130 -132 152 -200 10 -29 21 -57
25 -61 7 -8 398 79 412 92 10 9 -53 170 -93 238 -47 80 -171 201 -256 251
-173 101 -428 145 -655 111z"/>
<!-- H -->
<path d="M8290 13485 l0 -1045 210 0 210 0 0 455 0 455 415 0 415 0 0 -455 0
-455 215 0 215 0 0 1045 0 1045 -215 0 -215 0 0 -410 0 -410 -415 0 -415 0 0
410 0 410 -210 0 -210 0 0 -1045z"/>
<!-- O -->
<path d="M11155 14560 c-77 -10 -170 -35 -253 -66 -192 -72 -380 -257 -479
-471 -119 -257 -136 -694 -39 -979 139 -408 489 -644 956 -644 458 0 794 223
946 626 44 118 66 264 67 449 0 187 -14 295 -59 436 -112 354 -388 588 -761
644 -104 16 -278 18 -378 5z m376 -380 c254 -86 389 -323 389 -685 0 -249 -64
-447 -184 -569 -116 -117 -221 -159 -396 -160 -98 0 -126 4 -186 26 -142 50
-244 141 -314 280 -61 121 -75 201 -75 418 0 218 14 296 77 421 77 155 214
259 381 289 81 14 235 4 308 -20z"/>
<!-- L -->
<path d="M12700 13480 l0 -1040 740 0 740 0 0 175 0 175 -530 0 -530 0 0 865
0 865 -210 0 -210 0 0 -1040z"/>
<!-- A -->
<path d="M15052 14453 c-17 -43 -200 -512 -406 -1042 -207 -530 -376 -966
-376 -967 0 -2 101 -4 224 -4 l223 0 85 233 84 232 421 3 421 2 48 -122 c26
-68 66 -172 90 -233 l43 -110 231 -3 230 -2 -13 32 c-7 18 -195 489 -418 1045
l-404 1013 -227 0 -227 0 -29 -77z m398 -803 c76 -206 138 -376 136 -377 -2
-2 -129 -2 -283 -1 l-280 3 123 340 c159 436 157 431 161 420 2 -6 66 -179
143 -385z"/>
<!-- R -->
<path d="M16600 13486 l0 -1046 210 0 210 0 0 436 0 437 133 -5 c246 -9 254
-16 627 -575 l195 -292 253 -1 c243 0 252 1 243 18 -24 45 -290 467 -355 562
-82 121 -193 238 -285 298 -36 24 -57 44 -50 46 8 2 48 12 88 22 218 51 376
196 427 395 22 84 22 244 0 328 -39 153 -141 283 -270 346 -137 67 -144 68
-818 72 l-608 4 0 -1045z m1071 684 c75 -14 137 -56 174 -114 27 -45 30 -57
30 -135 0 -98 -16 -142 -73 -197 -65 -63 -90 -67 -454 -72 l-328 -4 0 266 0
266 299 0 c164 0 323 -5 352 -10z"/>
<!-- U -->
<path d="M2078 17691 l-526 -826 219 -3 219 -2 3 -5763 c3 -4193 7 -5801 15
-5907 59 -754 161 -1262 336 -1684 415 -999 1299 -1582 2621 -1730 474 -53
1101 -45 1538 19 561 83 1033 253 1427 517 187 125 285 204 444 358 505 490
759 1087 875 2050 59 488 61 582 61 3663 l0 2817 -615 0 -614 0 -4 -2927 c-3
-2098 -7 -2963 -15 -3053 -72 -785 -193 -1231 -429 -1589 -74 -113 -260 -298
-381 -380 -301 -204 -710 -333 -1212 -383 -210 -20 -741 -18 -910 5 -609 82
-1088 318 -1393 685 -266 319 -399 693 -467 1303 -45 415 -44 197 -47 6242
l-3 5757 220 0 c121 0 220 2 220 5 0 5 -1039 1637 -1049 1646 -3 4 -243 -365
-533 -820z"/>
<!-- P -->
<path d="M11360 6550 l0 -4650 615 0 615 0 0 1889 0 1890 1428 4 c1503 4 1513
5 1887 52 826 105 1420 358 1804 770 312 335 542 756 654 1200 76 298 102 548
94 890 -11 456 -93 803 -282 1190 -124 255 -255 444 -434 629 -184 188 -366
320 -606 436 -383 187 -779 277 -1455 332 -102 8 -760 12 -2232 15 l-2088 4 0
-4651z m4225 3540 c333 -20 507 -50 677 -115 185 -72 335 -171 478 -315 273
-275 428 -641 449 -1054 13 -277 -16 -540 -84 -751 -42 -130 -137 -314 -219
-423 -272 -361 -649 -539 -1336 -629 -110 -14 -298 -17 -1542 -20 l-1418 -4 0
1661 0 1660 1413 0 c831 0 1482 -4 1582 -10z"/>
</g>
</svg>
