<svg version="1.0" xmlns="http://www.w3.org/2000/svg"
 width="504" height="504" viewBox="0 0 504 504"
 preserveAspectRatio="xMidYMid meet">

<g transform="translate(0,504) scale(0.1,-0.1)"
fill="white" stroke="none">
<path d="M1615 5034 c-164 -7 -363 -26 -465 -45 -587 -113 -986 -512 -1098
-1099 -43 -224 -47 -333 -47 -1370 0 -1037 4 -1146 47 -1370 112 -587 511
-986 1098 -1098 224 -43 333 -47 1370 -47 1037 0 1146 4 1370 47 587 112 986
511 1098 1098 43 224 47 333 47 1370 0 1037 -4 1146 -47 1370 -112 589 -514
989 -1104 1099 -215 40 -299 43 -1259 46 -511 1 -966 0 -1010 -1z m2045 -473
c205 -27 358 -72 477 -142 75 -44 238 -207 282 -282 73 -124 117 -278 143
-492 19 -158 19 -2092 0 -2250 -26 -214 -70 -368 -143 -492 -44 -75 -207 -238
-282 -282 -124 -73 -278 -117 -492 -143 -158 -19 -2092 -19 -2250 0 -214 26
-368 70 -492 143 -75 44 -238 207 -282 282 -73 124 -117 278 -143 492 -19 158
-19 2092 0 2250 18 154 39 246 76 347 43 115 87 185 170 275 186 200 398 280
796 303 218 12 2037 5 2140 -9z"/>
<path d="M3765 4153 c-75 -25 -165 -119 -189 -197 -73 -233 147 -453 380 -380
84 26 172 115 198 198 22 71 17 153 -15 220 -25 54 -102 129 -155 151 -59 25
-159 28 -219 8z"/>
<path d="M2400 3810 c-306 -31 -581 -162 -795 -375 -343 -343 -465 -845 -319
-1308 126 -396 445 -715 841 -841 256 -80 530 -80 786 0 396 126 715 445 841
841 80 256 80 530 0 786 -126 396 -445 715 -841 841 -159 50 -361 72 -513 56z
m320 -476 c91 -22 253 -103 328 -164 92 -76 167 -172 222 -285 66 -137 83
-212 83 -365 0 -153 -17 -228 -83 -365 -85 -177 -208 -299 -385 -385 -137 -66
-211 -83 -365 -83 -154 0 -228 17 -365 83 -177 86 -300 208 -385 385 -27 55
-56 132 -66 170 -24 96 -24 294 0 390 24 97 105 258 166 333 130 158 334 274
531 302 83 11 236 4 319 -16z"/>
</g>
</svg>
