<svg version="1.0" xmlns="http://www.w3.org/2000/svg"
 width="512" height="512" viewBox="0 0 512 512"
 preserveAspectRatio="xMidYMid meet">

<g transform="translate(0,512) scale(0.1,-0.1)"
fill="white" stroke="none">
<path d="M2403 5100 c-112 -29 -211 -75 -328 -151 -115 -75 -135 -90 -311
-236 l-112 -93 -305 0 c-278 0 -311 -2 -371 -20 -133 -41 -255 -156 -307 -287
-21 -53 -24 -79 -29 -284 l-5 -226 -240 -195 c-258 -210 -301 -251 -339 -326
-60 -118 -57 -29 -54 -1538 l3 -1379 23 -57 c49 -121 159 -231 280 -280 l57
-23 2195 0 2195 0 57 23 c121 49 231 159 280 280 l23 57 3 1379 c3 1509 6
1420 -54 1538 -38 75 -81 116 -339 326 l-240 195 -5 226 c-5 205 -8 231 -29
284 -52 131 -174 246 -307 287 -60 18 -93 20 -371 20 l-306 0 -111 93 c-169
141 -194 160 -311 236 -234 153 -446 202 -642 151z m242 -315 c68 -18 219 -95
268 -136 l32 -28 -385 0 -385 0 32 28 c47 39 200 118 264 135 71 19 102 19
174 1z m1430 -508 c26 -14 48 -37 63 -67 l22 -44 0 -871 -1 -870 -421 -335
c-232 -184 -493 -394 -581 -467 -258 -214 -410 -308 -541 -335 -142 -28 -313
53 -591 282 -60 50 -325 262 -587 472 l-478 382 0 871 0 871 23 44 c14 30 36
53 62 67 l40 23 1475 0 1475 0 40 -23z m-3485 -1763 c-53 -70 -62 -106 -38
-160 8 -17 195 -173 478 -399 583 -465 625 -499 790 -635 451 -372 723 -441
1078 -273 95 45 251 150 382 258 58 48 368 297 690 555 347 277 591 479 598
495 25 55 13 99 -47 167 l-41 46 0 412 0 411 138 -111 c92 -74 144 -125 160
-152 l22 -41 0 -1316 0 -1317 -22 -44 c-17 -33 -35 -51 -68 -67 l-44 -23
-2106 0 -2106 0 -44 23 c-33 16 -51 34 -67 67 l-23 44 0 1317 0 1316 23 41
c15 28 67 77 157 151 l135 109 3 -404 2 -404 -50 -66z"/>
<path d="M1658 3884 c-42 -22 -58 -63 -58 -146 1 -81 12 -110 56 -139 28 -18
56 -19 904 -19 848 0 876 1 904 19 44 29 55 58 56 139 0 84 -16 124 -60 147
-43 22 -1761 22 -1802 -1z"/>
<path d="M1658 3244 c-42 -22 -58 -63 -58 -146 1 -81 12 -110 56 -139 28 -18
56 -19 904 -19 848 0 876 1 904 19 44 29 55 58 56 139 0 84 -16 124 -60 147
-43 22 -1761 22 -1802 -1z"/>
<path d="M1658 2604 c-42 -22 -58 -63 -58 -146 1 -81 12 -110 56 -139 28 -18
56 -19 904 -19 848 0 876 1 904 19 44 29 55 58 56 139 0 84 -16 124 -60 147
-43 22 -1761 22 -1802 -1z"/>
</g>
</svg>
