<svg version="1.0" xmlns="http://www.w3.org/2000/svg"
 width="512" height="512" viewBox="0 0 512 512"
 preserveAspectRatio="xMidYMid meet">

<g transform="translate(0,512) scale(0.1,-0.1)"
fill="white" stroke="none">
<path d="M798 4910 c-277 -47 -497 -247 -575 -520 -17 -62 -18 -147 -18 -1830
0 -1683 1 -1768 18 -1830 70 -245 262 -437 508 -507 61 -17 152 -18 1829 -18
1677 0 1768 1 1830 18 246 69 436 260 507 508 17 61 18 152 18 1829 0 1683 -1
1768 -18 1830 -56 198 -192 364 -369 452 -158 79 15 72 -1938 74 -960 1 -1766
-2 -1792 -6z m3192 -794 l0 -323 -202 -7 c-112 -4 -221 -12 -242 -17 -22 -6
-54 -25 -72 -43 -38 -38 -41 -55 -50 -318 l-6 -188 291 0 c160 0 291 -3 291
-6 0 -20 -61 -603 -66 -621 l-4 -23 -255 0 -255 0 0 -930 0 -930 -385 0 -385
0 0 930 0 930 -190 0 -190 0 0 325 0 325 185 0 c102 0 185 1 186 3 1 1 5 128
9 282 9 297 21 394 65 511 72 191 226 326 439 384 117 33 182 37 524 39 l312
1 0 -324z"/>
</g>
</svg>
