<svg version="1.0" xmlns="http://www.w3.org/2000/svg"
 width="425" height="425" viewBox="0 0 425 285"
 preserveAspectRatio="xMidYMid meet">

<g transform="translate(0,285) scale(0.1,-0.1)"
fill="white" stroke="none">
<path d="M705 2713 c-65 -5 -156 -33 -220 -67 -85 -44 -204 -164 -243 -246
-64 -131 -62 -108 -62 -957 0 -532 3 -788 11 -825 45 -211 205 -377 424 -439
73 -21 3002 -21 3085 0 152 38 303 158 370 295 70 142 70 132 70 966 0 814 -1
822 -58 944 -83 175 -258 300 -454 326 -67 9 -2824 12 -2923 3z m2820 -352
c-39 -37 -362 -348 -718 -691 l-649 -623 -66 65 c-37 36 -358 345 -714 687
-357 342 -648 624 -648 627 0 2 645 4 1432 4 l1433 0 -70 -69z m324 -921 c0
-575 -3 -772 -12 -793 l-12 -27 -423 406 c-233 223 -422 410 -420 415 2 5 192
191 423 413 418 402 420 404 432 377 9 -19 12 -216 12 -791z m-2927 404 c229
-219 417 -401 417 -404 1 -6 -838 -813 -849 -818 -25 -10 -30 131 -30 813 0
709 5 822 33 812 7 -2 199 -183 429 -403z m916 -881 c132 -128 252 -237 267
-243 40 -15 87 -12 120 8 27 17 225 204 457 430 l86 85 410 -394 c225 -217
408 -397 405 -401 -7 -13 -2855 -10 -2851 3 2 6 186 186 408 399 l404 388 27
-21 c15 -12 135 -127 267 -254z"/>
</g>
</svg>
