<?xml version="1.0" standalone="no"?>
<!DOCTYPE svg PUBLIC "-//W3C//DTD SVG 20010904//EN"
 "http://www.w3.org/TR/2001/REC-SVG-20010904/DTD/svg10.dtd">
<svg version="1.0" xmlns="http://www.w3.org/2000/svg"
 width="500" height="500" viewBox="0 0 500 500"
 preserveAspectRatio="xMidYMid meet">

<g transform="translate(0,500) scale(0.1,-0.1)"
fill="white" stroke="none">
<path d="M3240 4789 c-14 -6 -39 -15 -56 -19 -17 -4 -261 -145 -542 -314 -535
-321 -562 -340 -615 -441 -33 -62 -31 -172 6 -247 52 -106 143 -162 267 -163
l74 -1 104 -173 c58 -94 103 -173 101 -175 -2 -2 -491 -273 -1085 -603 -1024
-568 -1085 -604 -1153 -669 -50 -47 -82 -89 -104 -134 -29 -58 -32 -74 -32
-155 0 -85 3 -96 37 -167 65 -130 184 -213 325 -225 58 -5 78 -2 133 20 36 13
74 27 85 29 19 5 185 113 1538 1011 312 208 569 377 571 377 2 0 58 -89 125
-198 l120 -199 -20 -54 c-52 -135 21 -300 159 -361 63 -28 139 -34 186 -14 21
9 45 16 54 16 26 0 1054 623 1095 664 58 57 82 116 82 206 0 85 -21 142 -74
203 -66 75 -206 116 -283 84 l-37 -16 -90 147 c-49 81 -220 362 -379 624
l-289 477 26 53 c21 43 26 67 26 128 -1 122 -56 215 -160 265 -60 30 -156 41
-195 24z m109 -203 c55 -29 66 -99 24 -145 -16 -17 -224 -148 -463 -291 -239
-144 -446 -270 -460 -281 -33 -26 -128 -69 -151 -69 -32 0 -70 23 -85 51 -26
52 -16 90 38 138 20 17 33 41 38 67 l7 39 13 -27 c7 -16 17 -28 21 -28 4 0
217 126 475 280 261 156 478 280 491 280 13 0 36 -6 52 -14z m400 -991 c198
-327 361 -599 361 -603 -1 -8 -820 -505 -825 -500 -16 16 -725 1193 -723 1200
4 10 798 496 814 497 6 1 174 -267 373 -594z m-1000 -609 c23 -38 39 -72 34
-76 -4 -4 -188 -127 -408 -272 -220 -146 -688 -456 -1040 -690 -352 -234 -658
-431 -679 -438 -81 -26 -175 8 -224 83 -21 32 -27 52 -27 101 0 77 25 129 78
164 22 15 526 297 1121 627 925 514 1083 599 1092 585 6 -8 30 -46 53 -84z
m1700 -100 c50 -27 66 -95 31 -139 -11 -14 -224 -148 -473 -298 -248 -150
-456 -275 -460 -279 -5 -5 -1 -20 9 -35 l18 -28 -23 12 c-26 14 -69 10 -117
-9 -73 -31 -150 37 -130 115 7 29 53 74 104 100 20 11 246 145 501 297 268
161 473 278 488 278 13 0 36 -6 52 -14z"/>
<path d="M2605 782 c-65 -22 -109 -55 -146 -105 -49 -67 -59 -121 -59 -309 l0
-168 1201 0 1201 0 -4 188 c-3 165 -5 192 -24 233 -31 66 -78 114 -142 146
l-57 28 -960 2 c-891 2 -964 1 -1010 -15z m1944 -196 c36 -19 51 -55 51 -126
l0 -60 -1000 0 -1000 0 0 63 c1 68 15 103 51 123 37 20 1858 20 1898 0z"/>
</g>
</svg>
